<svg xmlns="http://www.w3.org/2000/svg" width="32" height="20" fill="none"><path fill="#fff" d="M3.923 14.004h1.06v5.23h-1.06V17.11H1.527v2.124H.465v-5.23h1.062v2.11h2.396v-2.11ZM9.9 17c0 .85-.422 1.304-1.188 1.304-.772 0-1.196-.469-1.196-1.341v-2.955H6.454v2.99c0 1.47.818 2.314 2.243 2.314 1.44 0 2.263-.86 2.263-2.359v-2.95H9.9v2.997Zm12.262.601-1.188-3.596h-.865L18.92 17.6l-1.156-3.593h-1.13l1.825 5.227h.877l1.19-3.433 1.189 3.433h.884l1.82-5.227h-1.1L22.162 17.6Zm4.16-.616h1.93v-.951h-1.93v-1.07h2.803v-.954h-3.848v5.223h3.949v-.954h-2.904v-1.294Zm4.168 2.243h1.048v-5.223H30.49v5.223Zm-17.433-1.085-.476 1.09h-1.084l2.305-5.228h.936l2.295 5.228H15.92l-.47-1.09h-2.394Zm.394-.941h1.605l-.803-1.87-.802 1.87ZM15.999 7.347A6.665 6.665 0 0 1 9.342.687h.941a5.725 5.725 0 0 0 5.719 5.718A5.725 5.725 0 0 0 21.72.687h.941C22.656 4.36 19.67 7.347 16 7.347Z"/></svg>