<svg xmlns="http://www.w3.org/2000/svg" width="19" height="23" fill="none"><path fill="#B3B3B3" d="M18.602 17.579a12.268 12.268 0 0 1-1.213 2.18c-.638.91-1.16 1.538-1.562 1.888-.624.574-1.292.867-2.008.884-.514 0-1.133-.146-1.855-.443-.723-.295-1.388-.441-1.996-.441-.638 0-1.322.146-2.053.441-.733.297-1.323.451-1.774.467-.687.03-1.37-.273-2.054-.908-.435-.38-.98-1.032-1.634-1.955-.7-.986-1.276-2.129-1.727-3.432C.242 14.852 0 13.49 0 12.17c0-1.512.327-2.816.98-3.908a5.754 5.754 0 0 1 2.055-2.079A5.527 5.527 0 0 1 5.813 5.4c.545 0 1.26.168 2.148.5.886.332 1.455.5 1.704.5.186 0 .818-.196 1.89-.59 1.012-.364 1.867-.515 2.568-.455 1.897.153 3.323.9 4.271 2.249-1.697 1.028-2.536 2.468-2.52 4.316.015 1.44.538 2.637 1.564 3.588.465.442.984.783 1.562 1.025-.125.363-.258.711-.398 1.046ZM14.249.45c0 1.128-.412 2.182-1.233 3.157-.992 1.159-2.19 1.828-3.491 1.723a3.514 3.514 0 0 1-.026-.428c0-1.083.471-2.242 1.308-3.19.418-.48.95-.878 1.595-1.196C13.045.203 13.653.03 14.226 0a4.1 4.1 0 0 1 .023.451Z"/><path fill="#fff" d="M18.602 17.579a12.268 12.268 0 0 1-1.213 2.18c-.638.91-1.16 1.538-1.562 1.888-.624.574-1.292.867-2.008.884-.514 0-1.133-.146-1.855-.443-.723-.295-1.388-.441-1.996-.441-.638 0-1.322.146-2.053.441-.733.297-1.323.451-1.774.467-.687.03-1.37-.273-2.054-.908-.435-.38-.98-1.032-1.634-1.955-.7-.986-1.276-2.129-1.727-3.432C.242 14.852 0 13.49 0 12.17c0-1.512.327-2.816.98-3.908a5.754 5.754 0 0 1 2.055-2.079A5.527 5.527 0 0 1 5.813 5.4c.545 0 1.26.168 2.148.5.886.332 1.455.5 1.704.5.186 0 .818-.196 1.89-.59 1.012-.364 1.867-.515 2.568-.455 1.897.153 3.323.9 4.271 2.249-1.697 1.028-2.536 2.468-2.52 4.316.015 1.44.538 2.637 1.564 3.588.465.442.984.783 1.562 1.025-.125.363-.258.711-.398 1.046ZM14.249.45c0 1.128-.412 2.182-1.233 3.157-.992 1.159-2.19 1.828-3.491 1.723a3.514 3.514 0 0 1-.026-.428c0-1.083.471-2.242 1.308-3.19.418-.48.95-.878 1.595-1.196C13.045.203 13.653.03 14.226 0a4.1 4.1 0 0 1 .023.451Z"/></svg>