<svg xmlns="http://www.w3.org/2000/svg" width="20" height="22" fill="none"><path fill="#EA4335" d="M9.311 10.508.083 20.177a2.503 2.503 0 0 0 3.665 1.485l10.384-5.914-4.82-5.24Z"/><path fill="#FBBC04" d="m18.643 8.864-4.49-2.572-5.055 4.436 5.075 5.006 4.456-2.544a2.441 2.441 0 0 0 0-4.326h.014Z"/><path fill="#4285F4" d="M.083 1.83A2.38 2.38 0 0 0 0 2.461v17.082c0 .213.028.426.083.633l9.545-9.422L.083 1.83Z"/><path fill="#34A853" d="m9.38 11.003 4.773-4.71L3.783.35A2.558 2.558 0 0 0 2.495 0 2.503 2.503 0 0 0 .083 1.822l9.297 9.18Z"/></svg>